#!OML:ASF H:\Dans Jumps\Project 1\Capture day 1\Session 1\subject.ASF
:FULLY-SPECIFIED
:DEGREES
17
root 0.411117 14.5861 4.40601 1.22665 -3.65829 -2.28616
lowerback 14.2042 0.259311 0.969738
upperback 9.53423 0.41959 1.91747
thorax 2.09212 0.186448 1.40652
lowerneck -11.6959 -0.0655458 -2.07972
upperneck -7.66134 0.206582 2.19676
head -0.45851 0.160679 1.03061
rclavicle 6.75868e-015 -1.39149e-014
rhumerus 41.3989 7.31274 -31.9092
rradius 67.9943
rwrist 21.9758
rhand -24.4044 -38.2157
rfingers 7.12502
rthumb 2.08681 -68.1853
lclavicle 6.75868e-015 -1.39149e-014
lhumerus 44.5634 -6.89455 36.137
lradius 66.121
lwrist 6.87981
lhand -31.7658 -3.16152
lfingers 7.12502
lthumb -5.02258 26.759
rfemur -43.1918 -11.321 15.0968
rtibia 77.498
rfoot -31.4943 -5.45288
rtoes -12.508
lfemur -40.3059 16.5834 -11.669
ltibia 77.5679
lfoot -30.2097 14.4608
ltoes -12.7924
18
root 0.411885 14.5858 4.40718 1.23643 -3.65809 -2.28717
lowerback 14.1799 0.261387 0.967746
upperback 9.53591 0.421575 1.91701
thorax 2.1067 0.187383 1.40702
lowerneck -11.6607 -0.075492 -2.06894
upperneck -7.68045 0.191238 2.18269
head -0.469815 0.152422 1.02373
rclavicle 3.77691e-015 1.86858e-014
rhumerus 41.3764 7.31776 -31.899
rradius 67.9986
rwrist 21.9843
rhand -24.4065 -38.2488
rfingers 7.12502
rthumb 2.08479 -68.2184
lclavicle 3.77691e-015 1.86858e-014
lhumerus 44.5594 -6.90765 36.134
lradius 66.114
lwrist 6.76727
lhand -31.7551 -3.24733
lfingers 7.12502
lthumb -5.01231 26.6734
rfemur -43.2037 -11.3273 15.0973
rtibia 77.5002
rfoot -31.4895 -5.45755
rtoes -12.5687
lfemur -40.3225 16.5757 -11.6725
ltibia 77.5804
lfoot -30.2098 14.4588
ltoes -12.763
19
root 0.413562 14.5834 4.40874 1.23082 -3.65901 -2.28566
lowerback 14.1916 0.255758 0.965297
upperback 9.53946 0.414038 1.91885
thorax 2.10444 0.183404 1.41123
lowerneck -11.701 -0.0740023 -2.05553
upperneck -7.65907 0.191501 2.16472
head -0.456738 0.152331 1.0159
rclavicle -1.11319e-014 -2.00773e-014
rhumerus 41.3757 7.33453 -31.8646
rradius 68.0062
rwrist 21.9864
rhand -24.3615 -38.1934
rfingers 7.12502
rthumb 2.12828 -68.1626
lclavicle -1.11319e-014 -2.00773e-014
lhumerus 44.5435 -6.90117 36.1405
lradius 66.1143
lwrist 6.62599
lhand -31.7008 -3.24626
lfingers 7.12502
lthumb -4.95981 26.6757
rfemur -43.1998 -11.3372 15.0835
rtibia 77.5089
rfoot -31.488 -5.45195
rtoes -12.5563
lfemur -40.2937 16.5645 -11.679
ltibia 77.588
lfoot -30.2152 14.5428
ltoes -13.1623
20
root 0.414319 14.5859 4.41102 1.22877 -3.68281 -2.28411
lowerback 14.1716 0.268836 0.961666
upperback 9.5583 0.429843 1.91478
thorax 2.13488 0.191208 1.40733
lowerneck -11.7213 -0.0869169 -2.07129
upperneck -7.67339 0.177049 2.18078
head -0.457654 0.145638 1.02328
rclavicle -1.49089e-014 -6.75868e-015
rhumerus 41.4094 7.3253 -31.8017
rradius 67.9952
rwrist 21.9321
rhand -24.3723 -38.2767
rfingers 7.12502
rthumb 2.11784 -68.2459
lclavicle -1.49089e-014 -6.75868e-015
lhumerus 44.5539 -6.89742 36.1334
lradius 66.1129
lwrist 6.41851
lhand -31.8125 -3.19334
lfingers 7.12502
lthumb -5.06771 26.7261
rfemur -43.1767 -11.3155 15.0768
rtibia 77.4984
rfoot -31.5043 -5.45606
rtoes -12.544
lfemur -40.2839 16.5817 -11.6816
ltibia 77.5918
lfoot -30.234 14.5044
ltoes -12.7634
21
root 0.414886 14.5841 4.41187 1.22333 -3.67544 -2.30326
lowerback 14.1909 0.25784 0.972967
upperback 9.55035 0.417205 1.92213
thorax 2.11646 0.185163 1.41004
lowerneck -11.7354 -0.0836573 -2.09343
upperneck -7.6386 0.184195 2.19704
head -0.44458 0.149944 1.0325
rclavicle 5.76476e-015 1.05356e-014
rhumerus 41.3646 7.34433 -31.8337
rradius 68.0028
rwrist 21.9762
rhand -24.3532 -38.1923
rfingers 7.12502
rthumb 2.13624 -68.1613
lclavicle 5.76476e-015 1.05356e-014
lhumerus 44.5147 -6.89123 36.1499
lradius 66.1225
lwrist 6.25629
lhand -31.7715 -3.2609
lfingers 7.12502
lthumb -5.02808 26.6594
rfemur -43.1706 -11.3203 15.0964
rtibia 77.5059
rfoot -31.5125 -5.48737
rtoes -12.5996
lfemur -40.287 16.5742 -11.6568
ltibia 77.6056
lfoot -30.2352 14.5037
ltoes -12.7791
22
root 0.416322 14.5837 4.41327 1.23164 -3.68565 -2.29501
lowerback 14.1703 0.252302 0.965647
upperback 9.56253 0.408365 1.91352
thorax 2.14057 0.180605 1.40639
lowerneck -11.7484 -0.0716152 -2.09699
upperneck -7.65431 0.201251 2.20325
head -0.447829 0.158672 1.03561
rclavicle -6.95746e-015 5.96354e-016
rhumerus 41.3714 7.34244 -31.83
rradius 68.0106
rwrist 22.0004
rhand -24.3399 -38.1782
rfingers 7.12502
rthumb 2.1491 -68.1471
lclavicle -6.95746e-015 5.96354e-016
lhumerus 44.5253 -6.86941 36.134
lradius 66.0826
lwrist 6.00888
lhand -31.915 -3.24508
lfingers 7.12502
lthumb -5.16666 26.6719
rfemur -43.182 -11.3226 15.0808
rtibia 77.5121
rfoot -31.4823 -5.47597
rtoes -12.4856
lfemur -40.2903 16.5679 -11.6725
ltibia 77.6126
lfoot -30.2602 14.5086
ltoes -12.7655
23
root 0.417485 14.5818 4.41485 1.22578 -3.68546 -2.3053
lowerback 14.2028 0.251111 0.987403
upperback 9.54576 0.410245 1.91133
thorax 2.10553 0.182635 1.39139
lowerneck -11.7983 -0.0722753 -2.0911
upperneck -7.58262 0.199384 2.19253
head -0.41732 0.157866 1.0314
rclavicle -1.05356e-014 -7.35503e-015
rhumerus 41.3421 7.36523 -31.8231
rradius 68.0102
rwrist 22.0476
rhand -24.3254 -38.1208
rfingers 7.12502
rthumb 2.16306 -68.0896
lclavicle -1.05356e-014 -7.35503e-015
lhumerus 44.491 -6.89627 36.1385
lradius 66.1193
lwrist 5.88189
lhand -31.8302 -3.20165
lfingers 7.12502
lthumb -5.08482 26.7173
rfemur -43.1725 -11.3308 15.0833
rtibia 77.5223
rfoot -31.521 -5.47934
rtoes -12.6283
lfemur -40.2637 16.5596 -11.662
ltibia 77.6211
lfoot -30.267 14.5651
ltoes -13.1235
24
root 0.418109 14.5809 4.41563 1.23721 -3.70181 -2.30189
lowerback 14.1807 0.2612 0.974927
upperback 9.54412 0.42166 1.91218
thorax 2.11514 0.187759 1.39798
lowerneck -11.7259 -0.0822512 -2.0823
upperneck -7.64138 0.184011 2.17671
head -0.44702 0.149411 1.02412
rclavicle -2.38542e-015 1.27222e-014
rhumerus 41.358 7.36647 -31.803
rradius 67.9742
rwrist 22.058
rhand -24.3242 -38.1321
rfingers 7.12502
rthumb 2.16429 -68.1009
lclavicle -2.38542e-015 1.27222e-014
lhumerus 44.4935 -6.90871 36.1368
lradius 66.1177
lwrist 5.77783
lhand -31.7091 -3.19941
lfingers 7.12502
lthumb -4.96787 26.7224
rfemur -43.2007 -11.316 15.0789
rtibia 77.5347
rfoot -31.5234 -5.45122
rtoes -12.5975
lfemur -40.2762 16.5801 -11.6747
ltibia 77.631
lfoot -30.2417 14.627
ltoes -13.2444
25
root 0.419006 14.5814 4.41728 1.24722 -3.71888 -2.33556
lowerback 14.171 0.259624 1.00989
upperback 9.54849 0.42294 1.91344
thorax 2.12523 0.1899 1.37956
lowerneck -11.7309 -0.0897413 -2.08343
upperneck -7.65979 0.174659 2.18634
head -0.451786 0.144766 1.02708
rclavicle -7.55382e-015 1.5704e-014
rhumerus 41.3448 7.35975 -31.8093
rradius 67.9846
rwrist 22.0844
rhand -24.3153 -38.109
rfingers 7.12502
rthumb 2.17287 -68.0777
lclavicle -7.55382e-015 1.5704e-014
lhumerus 44.4888 -6.90713 36.1247
lradius 66.1055
lwrist 5.67536
lhand -31.9288 -3.27602
lfingers 7.12502
lthumb -5.17996 26.6407
rfemur -43.2009 -11.2967 15.1164
rtibia 77.5326
rfoot -31.5225 -5.44368
rtoes -12.58
lfemur -40.3046 16.6033 -11.6376
ltibia 77.6512
lfoot -30.2638 14.5603
ltoes -12.8319
26
root 0.420446 14.5824 4.41936 1.24436 -3.70625 -2.28273
lowerback 14.181 0.254021 0.968331
upperback 9.5345 0.411783 1.89271
thorax 2.10488 0.183117 1.38244
lowerneck -11.6678 -0.0867596 -2.09866
upperneck -7.70049 0.180481 2.20886
head -0.474673 0.147813 1.03676
rclavicle -4.87022e-015 -4.57205e-015
rhumerus 41.329 7.38099 -31.8123
rradius 68.0111
rwrist 22.0854
rhand -24.2701 -38.1327
rfingers 7.12502
rthumb 2.21651 -68.1009
lclavicle -4.87022e-015 -4.57205e-015
lhumerus 44.4632 -6.92531 36.1085
lradius 66.1277
lwrist 5.69982
lhand -31.9822 -3.23536
lfingers 7.12502
lthumb -5.23155 26.6801
rfemur -43.1903 -11.3373 15.047
rtibia 77.5333
rfoot -31.5356 -5.44807
rtoes -12.669
lfemur -40.2886 16.5756 -11.7059
ltibia 77.6488
lfoot -30.2793 14.5711
ltoes -12.8064
27
root 0.421589 14.5808 4.42071 1.24518 -3.71439 -2.33281
lowerback 14.1826 0.25074 1.01591
upperback 9.53936 0.412425 1.9064
thorax 2.10961 0.185134 1.36995
lowerneck -11.7057 -0.08479 -2.09592
upperneck -7.68865 0.182938 2.19787
head -0.465016 0.14913 1.03301
rclavicle -6.65929e-015 -3.97569e-016
rhumerus 41.3325 7.37675 -31.7995
rradius 68.0005
rwrist 22.0834
rhand -24.2755 -38.1085
rfingers 7.12502
rthumb 2.21127 -68.0768
lclavicle -6.65929e-015 -3.97569e-016
lhumerus 44.462 -6.91931 36.1083
lradius 66.1313
lwrist 5.71064
lhand -31.8642 -3.15057
lfingers 7.12502
lthumb -5.11757 26.7676
rfemur -43.1865 -11.324 15.0962
rtibia 77.5338
rfoot -31.5364 -5.43632
rtoes -12.6153
lfemur -40.2684 16.5973 -11.6555
ltibia 77.6593
lfoot -30.2564 14.6741
ltoes -13.3318
